# xmcd
# 
# Track frame offsets:
#     150
#     15952
#     33779
#     43844
#     68418
#     80685
#     97172
#     111554
#     126156
#     137211
#     156345
#     170587
# 
# Disc length: 2554
# 
# Revision: 2
# Processed by: cddbd v1.5.2PL0 Copyright (c) Steve Scherf et al.
# Submitted via: BonkEnc v1.0
# 
DISCID=a109f80c
DTITLE=Radiohead - Pablo Honey
DYEAR=0
DGENRE=
TTITLE0=You
TTITLE1=Creep
TTITLE2=How do you?
TTITLE3=Stop whispering
TTITLE4=Thinking about you
TTITLE5=Anyone can play guitar
TTITLE6=Ripcord
TTITLE7=Vegetable
TTITLE8=Prove Yourself
TTITLE9=I can't
TTITLE10=Lurgee
TTITLE11=Blow out
EXTD=
EXTT0=
EXTT1=
EXTT2=
EXTT3=
EXTT4=
EXTT5=
EXTT6=
EXTT7=
EXTT8=
EXTT9=
EXTT10=
EXTT11=
PLAYORDER=
